<svg xmlns="http://www.w3.org/2000/svg" width="37.5" height="37.5" viewBox="0 0 37.5 37.5">
  <g id="Group_2649" data-name="Group 2649" transform="translate(-187 -818)">
    <g id="notification_outline_notification" data-name="notification/outline/notification" transform="translate(187 818)">
      <g id="vuesax_outline_notification" data-name="vuesax/outline/notification">
        <g id="notification">
          <path id="Vector" d="M13.74,28.688A33.866,33.866,0,0,1,3.005,26.953a4.347,4.347,0,0,1-2.75-2.578,4.22,4.22,0,0,1,.422-3.719l1.8-2.984a6.325,6.325,0,0,0,.719-2.609V10.547a10.547,10.547,0,0,1,21.094,0v4.516a6.53,6.53,0,0,0,.719,2.625l1.781,2.969a4.325,4.325,0,0,1,.344,3.719,4.25,4.25,0,0,1-2.672,2.578A33.7,33.7,0,0,1,13.74,28.688Zm0-26.344a8.212,8.212,0,0,0-8.2,8.2v4.516A8.813,8.813,0,0,1,4.49,18.875l-1.8,2.984a1.942,1.942,0,0,0-.234,1.7,1.977,1.977,0,0,0,1.3,1.156,31.249,31.249,0,0,0,19.984,0,1.908,1.908,0,0,0,1.2-1.172,1.946,1.946,0,0,0-.156-1.687l-1.8-2.984a8.781,8.781,0,0,1-1.047-3.828v-4.5A8.2,8.2,0,0,0,13.74,2.344Z" transform="translate(5.042 3.391)" fill="#999b9e"/>
          <path id="Vector-2" data-name="Vector" d="M6.961,4.313a1.189,1.189,0,0,1-.328-.047A11.01,11.01,0,0,0,5.32,3.984a9.136,9.136,0,0,0-3.812.281A1.163,1.163,0,0,1,.086,2.719,4.256,4.256,0,0,1,4.07,0,4.234,4.234,0,0,1,8.054,2.719a1.192,1.192,0,0,1-.219,1.219A1.208,1.208,0,0,1,6.961,4.313Z" transform="translate(14.727 1.844)" fill="#999b9e"/>
          <path id="Vector-3" data-name="Vector" d="M5.859,5.859A5.881,5.881,0,0,1,1.719,4.141,5.881,5.881,0,0,1,0,0H2.344A3.54,3.54,0,0,0,3.375,2.484,3.54,3.54,0,0,0,5.859,3.516,3.521,3.521,0,0,0,9.375,0h2.344A5.862,5.862,0,0,1,5.859,5.859Z" transform="translate(12.922 29.781)" fill="#999b9e"/>
          <path id="Vector-4" data-name="Vector" d="M0,0H37.5V37.5H0Z" fill="none" opacity="0"/>
        </g>
      </g>
    </g>
  </g>
</svg>
