<svg xmlns="http://www.w3.org/2000/svg" width="24" height="19" viewBox="0 0 24 19">
  <path id="Path_21108" data-name="Path 21108" d="M23.573,55.147a1.792,1.792,0,0,0-1.226-.631l-16.9-1.41A1.8,1.8,0,0,0,3.5,54.745l-.34,3.186H1.8a1.8,1.8,0,0,0-1.8,1.8V70.3a1.8,1.8,0,0,0,1.8,1.8h16.96a1.8,1.8,0,0,0,1.8-1.8V68.585l.6.05q.076.006.151.006a1.8,1.8,0,0,0,1.8-1.651l.88-10.531a1.788,1.788,0,0,0-.42-1.313ZM1.8,58.867h16.96a.866.866,0,0,1,.865.864v.963H.937v-.963A.866.866,0,0,1,1.8,58.867ZM.937,61.631h18.69v1.943H.937Zm17.825,9.532H1.8A.866.866,0,0,1,.937,70.3V64.51h18.69V70.3A.866.866,0,0,1,18.762,71.163Zm4.3-14.781-.88,10.531a.866.866,0,0,1-.934.789l-.68-.057V59.731a1.8,1.8,0,0,0-1.8-1.8H4.1l.33-3.092v-.011a.866.866,0,0,1,.934-.789l16.9,1.41a.864.864,0,0,1,.79.933Z" transform="translate(0 -53.1)" fill="#25a8a0"/>
</svg>
