<svg id="home_outline" data-name="home/outline" xmlns="http://www.w3.org/2000/svg" width="34" height="34" viewBox="0 0 34 34">
  <g id="vuesax_outline_home" data-name="vuesax/outline/home">
    <g id="home">
      <path id="Vector" d="M1.07,6.42A1.078,1.078,0,0,1,0,5.35V1.07A1.078,1.078,0,0,1,1.07,0,1.078,1.078,0,0,1,2.14,1.07V5.35A1.078,1.078,0,0,1,1.07,6.42Z" transform="translate(16 19.637)" fill="#999b9e"/>
      <path id="Vector-2" data-name="Vector" d="M23.961,31.135H7.552a5.742,5.742,0,0,1-5.538-4.7L.066,14.695A6.084,6.084,0,0,1,2.087,9.362L12.24,1.186a5.777,5.777,0,0,1,7.032.015L29.425,9.362a6.2,6.2,0,0,1,2.022,5.333L29.5,26.421A5.835,5.835,0,0,1,23.961,31.135ZM15.742,2.217a3.435,3.435,0,0,0-2.124.692L3.465,11.1a3.953,3.953,0,0,0-1.231,3.241L4.182,26.067a3.6,3.6,0,0,0,3.37,2.858H23.961a3.594,3.594,0,0,0,3.37-2.873l1.949-11.726a4.047,4.047,0,0,0-1.231-3.241L17.9,2.924A3.471,3.471,0,0,0,15.742,2.217Z" transform="translate(1.245 1.425)" fill="#999b9e"/>
      <path id="Vector-3" data-name="Vector" d="M0,0H34V34H0Z" fill="#999b9e" opacity="0"/>
    </g>
  </g>
</svg>
