<svg xmlns="http://www.w3.org/2000/svg" width="24" height="24" viewBox="0 0 24 24">
  <g id="Group_8620" data-name="Group 8620" transform="translate(2287.998 -13145)">
    <g id="wallet_bold" data-name="wallet/bold" transform="translate(-2287.998 13145)">
      <g id="vuesax_bold_wallet" data-name="vuesax/bold/wallet">
        <g id="wallet">
          <path id="Vector" d="M5.99.2,3.58,5.814H1.17A5.662,5.662,0,0,0,0,5.924l1-2.4.04-.09.06-.16a1.586,1.586,0,0,1,.08-.18C2.34.4,3.64-.436,5.99.2Z" transform="translate(5.95 2.006)" fill="#707070"/>
          <path id="Vector-2" data-name="Vector" d="M8.11,5.57l-.02-.01A6.687,6.687,0,0,0,6.26,5.3H0L2.25.07,2.28,0c.14.05.29.12.44.17l2.21.93A6.617,6.617,0,0,1,7.55,2.78c.09.12.17.23.25.36a1.522,1.522,0,0,1,.2.43,1.338,1.338,0,0,1,.09.26A3.5,3.5,0,0,1,8.11,5.57Z" transform="translate(10.62 2.52)" fill="#707070"/>
          <path id="Vector-3" data-name="Vector" d="M0,1.33H.25A.58.58,0,0,0,.8.73C.8.31.68.25.42.15L0,0Z" transform="translate(12.52 16.33)" fill="#707070"/>
          <path id="Vector-4" data-name="Vector" d="M16.05.2A5.057,5.057,0,0,0,14.64,0H4.88A4.777,4.777,0,0,0,2.96.39,4.894,4.894,0,0,0,0,4.88V6.83a5.648,5.648,0,0,0,.05.71q.33,4.77,5.1,5.09a5.394,5.394,0,0,0,.71.05h7.8c3.7,0,5.65-1.76,5.84-5.26.01-.19.02-.39.02-.59V4.88A4.9,4.9,0,0,0,16.05.2ZM11.04,6.18a1.477,1.477,0,0,1,1.08,1.56,1.612,1.612,0,0,1-1.59,1.64h-.25V9.6a.52.52,0,1,1-1.04,0V9.38H9.15A1.785,1.785,0,0,1,7.4,7.57a.52.52,0,0,1,1.04,0,.747.747,0,0,0,.71.77h.09V6.65l-.76-.27A1.477,1.477,0,0,1,7.4,4.82,1.612,1.612,0,0,1,8.99,3.18h.25V2.96a.52.52,0,0,1,1.04,0v.22h.09a1.785,1.785,0,0,1,1.75,1.81.52.52,0,0,1-1.04,0,.747.747,0,0,0-.71-.77h-.09V5.91Z" transform="translate(2.24 9.32)" fill="#707070"/>
          <path id="Vector-5" data-name="Vector" d="M0,.6c0,.42.12.48.38.58l.42.15V0H.55A.573.573,0,0,0,0,.6Z" transform="translate(10.68 13.54)" fill="#707070"/>
          <path id="Vector-6" data-name="Vector" d="M0,0H24V24H0Z" fill="none" opacity="0"/>
        </g>
      </g>
    </g>
  </g>
</svg>
