<svg xmlns="http://www.w3.org/2000/svg" xmlns:xlink="http://www.w3.org/1999/xlink" width="337.702" height="246.916" viewBox="0 0 337.702 246.916">
  <defs>
    <linearGradient id="linear-gradient" x1="-6.183" y1="0.944" x2="-5.396" y2="0.129" gradientUnits="objectBoundingBox">
      <stop offset="0" stop-color="#f1c7a3"/>
      <stop offset="1" stop-color="#f0a98b"/>
    </linearGradient>
    <linearGradient id="linear-gradient-2" x1="-2.075" y1="0.07" x2="-2.013" y2="0.837" gradientUnits="objectBoundingBox">
      <stop offset="0" stop-color="#48210d"/>
      <stop offset="1" stop-color="#4c2112"/>
    </linearGradient>
    <linearGradient id="linear-gradient-3" x1="-2.134" y1="0.038" x2="-2.069" y2="0.999" xlink:href="#linear-gradient-2"/>
    <linearGradient id="linear-gradient-4" x1="-8.989" y1="1.145" x2="-8.618" y2="0.432" gradientUnits="objectBoundingBox">
      <stop offset="0" stop-color="#edc4a0"/>
      <stop offset="1" stop-color="#eda687"/>
    </linearGradient>
    <linearGradient id="linear-gradient-5" x1="0.199" y1="0.739" x2="1.016" y2="0.2" xlink:href="#linear-gradient"/>
  </defs>
  <g id="Group_8697" data-name="Group 8697" transform="translate(-1.585 0)">
    <path id="Path_16311" data-name="Path 16311" d="M398.357,231.568c-5.933,12.241-16.207,21.608-27.96,28.735a123.589,123.589,0,0,1-15,7.681q-5.073,2.2-10.286,4.009a163.454,163.454,0,0,1-53.743,8.969q-4.478,0-8.957-.23-1.285-.066-2.57-.151-6.77-.449-13.495-1.439c-.088-.013-.179-.025-.268-.041a170,170,0,0,1-27.642-6.478q-2.622-.85-5.212-1.786c-.466-.164-.932-.337-1.4-.507q-2.919-1.082-5.795-2.271-2.419-1-4.809-2.069-2.353-1.063-4.674-2.2-3.8-1.861-7.514-3.9-2.867-1.587-5.659-3.294a156.41,156.41,0,0,1-13.382-9.158q-2.277-1.738-4.491-3.565c-1.024-.844-2.038-1.707-3.068-2.545a38.709,38.709,0,0,0-6.9-4.7,24.757,24.757,0,0,0-2.312-1.02,28.943,28.943,0,0,0-9.18-1.786,52.035,52.035,0,0,0-16.049,2.258c-2.459.7-4.891,1.5-7.322,2.315q-1.5.505-2.992,1.014c-2.06.7-4.119,1.389-6.2,2.016-.693.208-1.386.413-2.082.6a61.168,61.168,0,0,1-8.475,1.8,45.153,45.153,0,0,1-19.05-1.66l-.526-.164c-.882-.277-1.754-.579-2.623-.91l-.526-.2q-1.256-.487-2.466-1.042l-.526-.239c-.775-.362-1.534-.74-2.28-1.14-.063-.031-.123-.063-.186-.1-.29-.151-.576-.315-.86-.469a51.844,51.844,0,0,1-12.333-9.6c-.1-.1-.2-.211-.315-.315-.5-.542-.992-1.093-1.468-1.657-.176-.208-.353-.416-.526-.63q-.846-1.035-1.634-2.113c-.079-.1-.154-.211-.23-.315a45.675,45.675,0,0,1-5.313-9.605c-.044-.1-.085-.211-.123-.315q-.628-1.62-1.149-3.3c-.142-.466-.277-.945-.4-1.411-.041-.139-.079-.28-.113-.419-1.723-6.84-1.909-13.955-1.909-21.028v-2.472c.05-11.442.227-23.078,1.915-34.362a1.9,1.9,0,0,1,.035-.233,108.343,108.343,0,0,1,2.3-11.281A83.646,83.646,0,0,1,74.5,127.419c3.883-9.133,9.53-17.444,15.8-25.147C106.077,82.9,126.79,66.615,151.034,60.54a89.4,89.4,0,0,1,76.23,16.5c6.214,4.944,11.816,10.771,18.7,14.695q.35.2.709.4,1.365.742,2.79,1.348a28.792,28.792,0,0,0,3.877,1.338,21.926,21.926,0,0,0,12.733-.17c.34-.117.68-.239,1.017-.375.715-.283,1.4-.548,2.056-.794a29.715,29.715,0,0,1,13.407-2.192,129.548,129.548,0,0,1,37.905,7.933c.491.18.983.365,1.471.551,31.717,12.141,58.987,36.249,73.153,67.229q.567,1.228,1.093,2.475C404.628,189.2,407.676,212.338,398.357,231.568Z" transform="translate(-64.785 -57.987)" fill="#fbfbfb"/>
    <path id="Path_16312" data-name="Path 16312" d="M63.505,512.617v.126l-.047.057Z" transform="translate(-43.473 -351.176)" fill="#cacaca"/>
    <path id="Path_16313" data-name="Path 16313" d="M295.777,630.833q-1.5.505-2.992,1.014v-1.014Z" transform="translate(-219.894 -450.424)" fill="#fff"/>
    <rect id="Rectangle_17558" data-name="Rectangle 17558" width="7.376" height="18.441" transform="translate(181.18 18.508)" fill="#e4e4e4"/>
    <path id="Path_16314" data-name="Path 16314" d="M564.1,170.693V356.312a170,170,0,0,1-27.642-6.478q-2.622-.85-5.212-1.786c-.466-.164-.932-.337-1.4-.507q-2.92-1.082-5.795-2.271-2.419-1-4.809-2.069-2.352-1.063-4.674-2.2-3.8-1.861-7.514-3.9-2.867-1.587-5.659-3.294V170.693Z" transform="translate(-362.807 -135.198)" fill="#e4e4e4"/>
    <path id="Path_16315" data-name="Path 16315" d="M725.774,170.693v187.48q-4.478,0-8.957-.23-1.285-.066-2.57-.151-6.769-.449-13.495-1.439c-.088-.013-.18-.025-.268-.041V170.693Z" transform="translate(-499.196 -135.198)" fill="#cacaca"/>
    <rect id="Rectangle_17559" data-name="Rectangle 17559" width="9.484" height="9.484" transform="translate(149.917 53.936)" fill="#fff"/>
    <rect id="Rectangle_17560" data-name="Rectangle 17560" width="9.484" height="9.484" transform="translate(165.197 53.936)" fill="#fff"/>
    <rect id="Rectangle_17561" data-name="Rectangle 17561" width="9.484" height="9.484" transform="translate(180.477 53.936)" fill="#fff"/>
    <rect id="Rectangle_17562" data-name="Rectangle 17562" width="9.484" height="9.484" transform="translate(150.181 75.538)" fill="#fff"/>
    <rect id="Rectangle_17563" data-name="Rectangle 17563" width="9.484" height="9.484" transform="translate(165.46 75.538)" fill="#fff"/>
    <rect id="Rectangle_17564" data-name="Rectangle 17564" width="9.484" height="9.484" transform="translate(180.74 75.538)" fill="#fff"/>
    <rect id="Rectangle_17565" data-name="Rectangle 17565" width="9.484" height="9.484" transform="translate(150.444 97.14)" fill="#fff"/>
    <rect id="Rectangle_17566" data-name="Rectangle 17566" width="9.484" height="9.484" transform="translate(165.724 97.14)" fill="#fff"/>
    <rect id="Rectangle_17567" data-name="Rectangle 17567" width="9.484" height="9.484" transform="translate(181.004 97.14)" fill="#fff"/>
    <rect id="Rectangle_17568" data-name="Rectangle 17568" width="9.484" height="9.484" transform="translate(150.708 118.742)" fill="#fff"/>
    <rect id="Rectangle_17569" data-name="Rectangle 17569" width="9.484" height="9.484" transform="translate(165.987 118.742)" fill="#fff"/>
    <rect id="Rectangle_17570" data-name="Rectangle 17570" width="9.484" height="9.484" transform="translate(181.267 118.742)" fill="#fff"/>
    <rect id="Rectangle_17571" data-name="Rectangle 17571" width="9.484" height="9.484" transform="translate(150.971 140.344)" fill="#fff"/>
    <rect id="Rectangle_17572" data-name="Rectangle 17572" width="9.484" height="9.484" transform="translate(166.251 140.344)" fill="#fff"/>
    <rect id="Rectangle_17573" data-name="Rectangle 17573" width="9.484" height="9.484" transform="translate(181.53 140.344)" fill="#fff"/>
    <rect id="Rectangle_17574" data-name="Rectangle 17574" width="9.484" height="9.484" transform="translate(151.234 161.946)" fill="#fff"/>
    <rect id="Rectangle_17575" data-name="Rectangle 17575" width="9.484" height="9.484" transform="translate(166.514 161.946)" fill="#fff"/>
    <rect id="Rectangle_17576" data-name="Rectangle 17576" width="9.484" height="9.484" transform="translate(181.794 161.946)" fill="#fff"/>
    <rect id="Rectangle_17577" data-name="Rectangle 17577" width="9.484" height="9.484" transform="translate(151.498 183.549)" fill="#fff"/>
    <rect id="Rectangle_17578" data-name="Rectangle 17578" width="9.484" height="9.484" transform="translate(166.778 183.549)" fill="#fff"/>
    <rect id="Rectangle_17579" data-name="Rectangle 17579" width="9.484" height="9.484" transform="translate(182.057 183.549)" fill="#fff"/>
    <path id="Path_16316" data-name="Path 16316" d="M552.709,709.393v4.922q-2.419-1-4.809-2.069-2.353-1.063-4.674-2.2v-.658Z" transform="translate(-391.463 -504.243)" fill="#fff"/>
    <path id="Path_16317" data-name="Path 16317" d="M601.222,709.393v9.486h-2.879q-2.622-.85-5.212-1.786c-.466-.164-.932-.337-1.4-.507v-7.193Z" transform="translate(-424.696 -504.243)" fill="#fff"/>
    <rect id="Rectangle_17580" data-name="Rectangle 17580" width="9.484" height="9.484" transform="translate(182.321 205.151)" fill="#fff"/>
    <rect id="Rectangle_17581" data-name="Rectangle 17581" width="7.376" height="10.929" transform="translate(267.149 112.42)" fill="#e4e4e4"/>
    <path id="Path_16318" data-name="Path 16318" d="M815.046,446.673v91.6a163.453,163.453,0,0,1-53.743,8.969q-4.478,0-8.957-.23V446.673Z" transform="translate(-534.724 -324.262)" fill="#e4e4e4"/>
    <path id="Path_16319" data-name="Path 16319" d="M976.729,446.673v79.9a123.6,123.6,0,0,1-15,7.681q-5.073,2.2-10.286,4.009v-91.6Z" transform="translate(-671.117 -324.262)" fill="#cacaca"/>
    <rect id="Rectangle_17582" data-name="Rectangle 17582" width="9.484" height="9.484" transform="translate(230.003 140.344)" fill="#fff"/>
    <rect id="Rectangle_17583" data-name="Rectangle 17583" width="9.484" height="9.484" transform="translate(245.283 140.344)" fill="#fff"/>
    <rect id="Rectangle_17584" data-name="Rectangle 17584" width="9.484" height="9.484" transform="translate(260.562 140.344)" fill="#fff"/>
    <rect id="Rectangle_17585" data-name="Rectangle 17585" width="9.484" height="9.484" transform="translate(230.267 161.946)" fill="#fff"/>
    <rect id="Rectangle_17586" data-name="Rectangle 17586" width="9.484" height="9.484" transform="translate(245.546 161.946)" fill="#fff"/>
    <rect id="Rectangle_17587" data-name="Rectangle 17587" width="9.484" height="9.484" transform="translate(260.826 161.946)" fill="#fff"/>
    <rect id="Rectangle_17588" data-name="Rectangle 17588" width="9.484" height="9.484" transform="translate(230.53 183.549)" fill="#fff"/>
    <rect id="Rectangle_17589" data-name="Rectangle 17589" width="9.484" height="9.484" transform="translate(245.81 183.549)" fill="#fff"/>
    <rect id="Rectangle_17590" data-name="Rectangle 17590" width="9.484" height="9.484" transform="translate(261.089 183.549)" fill="#fff"/>
    <rect id="Rectangle_17591" data-name="Rectangle 17591" width="9.484" height="9.484" transform="translate(230.794 205.151)" fill="#fff"/>
    <rect id="Rectangle_17592" data-name="Rectangle 17592" width="9.484" height="9.484" transform="translate(246.073 205.151)" fill="#fff"/>
    <rect id="Rectangle_17593" data-name="Rectangle 17593" width="9.484" height="9.484" transform="translate(261.353 205.151)" fill="#fff"/>
    <path id="Path_16320" data-name="Path 16320" d="M775.912,774.692s3.374,12,17.5,11.453a24.847,24.847,0,0,0,20.238-11.671Z" transform="translate(-550.869 -548.828)" fill="#263238"/>
    <path id="Path_16321" data-name="Path 16321" d="M87.55,556.256l-4.037,7.393.655,13.877L180.9,606.27l42.123,5.18-8.235-50.236-28.817-5.1-43.23,1.235-36.65-6.763Z" transform="translate(-57.212 -377.186)" fill="#2f2e41"/>
    <path id="Path_16322" data-name="Path 16322" d="M163.745,685.777h-2.5a12.643,12.643,0,0,1-11.5-7.3c-3.85-8.4-2.709-20.025-2.692-20.191.872-10.045,6.378-16.6,13.7-16.3,8.084.326,14.977,28.286,15.266,29.476a10.42,10.42,0,0,1-.363,6.046A12.6,12.6,0,0,1,163.745,685.777Z" transform="translate(-119.941 -458.058)" fill="#263238"/>
    <path id="Path_16323" data-name="Path 16323" d="M478.773,723.818a8.8,8.8,0,0,1-1.274-.123,19.746,19.746,0,0,1-14.911-11.351c-1.013-2.2-1.987-4.456-2.9-6.7-3.648-9.014-.59-24.771,4.38-30.87,4.386-5.383,8.8-5.341,15.484-5.278.686.007,1.4.013,2.135.015,7.42.012,15.265,27.308,17.842,36.277.205.714.375,1.3.506,1.747a8.936,8.936,0,0,1-.143,4.845A14.863,14.863,0,0,1,487,723.162C482.586,723.6,479.819,723.818,478.773,723.818Z" transform="translate(-333.139 -476.902)" fill="#263238"/>
    <path id="Path_16324" data-name="Path 16324" d="M144.917,625.31s-2.836-12.653,1.418-21.27l4.288-10.362,16.2,15.053,3.7,23.554,63.4,9.606S230,603.276,254.65,601.749,291,641.89,291,641.89l12.3,8.944,85.736-6.327s1.513,4.145-.661,6.327-106.236,8.945-106.236,8.945-5.236-51.7-25.961-46.9-14.526,41.179-14.526,41.179l-74.046-13.036s-2.4-35.123-14.617-35.123S144.917,625.31,144.917,625.31Z" transform="translate(-117.96 -424.97)" fill="#242729"/>
    <path id="Path_16325" data-name="Path 16325" d="M129.152,441.238l13.968-21.9,59.557-3.49,66.1.873,30.76,28.579-95.117,5.454-76.573-4.145Z" transform="translate(-87.585 -284.886)" fill="#242729"/>
    <path id="Path_16326" data-name="Path 16326" d="M164.627,554.445s-11.884.248-13.193,22.718c0,0,12.653-22.907,23.561,28.142l65.12,10.581s-2.4-42.541,22.252-39.268,30.542,42.323,30.542,42.323,4.8,9.6,31.2,8.072,65.883-3.927,70.029-9.381c0,0,9.6-32.506-20.289-53.449l-38.832-5.672L247.1,560.256Z" transform="translate(-123.06 -398.093)" fill="#ed6522"/>
    <path id="Path_16327" data-name="Path 16327" d="M268.441,596.385h-7.417a1.527,1.527,0,1,1,0-3.054h7.417a1.527,1.527,0,1,1,0,3.054Z" transform="translate(-197.09 -424.733)" fill="#cacaca"/>
    <circle id="Ellipse_153" data-name="Ellipse 153" cx="4.799" cy="4.799" r="4.799" transform="translate(179.449 209.503)" fill="#fff"/>
    <path id="Path_16328" data-name="Path 16328" d="M600.177,615.115a18.325,18.325,0,0,1-10.72-4.107c-6.2-4.773-8.8-11.821-5.8-15.71s10.475-3.171,16.671,1.6a19.123,19.123,0,0,1,6.348,8.163c1.106,2.975.912,5.655-.545,7.547A7.225,7.225,0,0,1,600.177,615.115Z" transform="translate(-418.307 -424.363)" fill="#fff"/>
    <path id="Path_16329" data-name="Path 16329" d="M869.747,603.031c-2.417,0-6.76-2.448-11.059-6.42a32.589,32.589,0,0,1-6.011-7.187c-1.32-2.289-1.621-4.011-.847-4.848s2.514-.674,4.9.461a32.577,32.577,0,0,1,7.639,5.426c5.438,5.025,8.451,10.312,6.858,12.035A1.932,1.932,0,0,1,869.747,603.031Z" transform="translate(-602.589 -418.373)" fill="#fff"/>
    <path id="Path_16330" data-name="Path 16330" d="M227.859,511.531q-.078,0-.156-.007l-15.775-1.467a1.7,1.7,0,0,1-1.285-2.584l8.9-14.342a1.7,1.7,0,0,1,1.367-.8l11.766-.519a1.7,1.7,0,0,1,1.7,2.182l-4.886,16.327A1.7,1.7,0,0,1,227.859,511.531Z" transform="translate(-163.447 -355.184)" fill="#fff"/>
    <path id="Path_16331" data-name="Path 16331" d="M328.168,505.562q-.233,0-.47-.023l-27.271-2.685a4.761,4.761,0,0,1-4.127-5.99l3.923-14.4a4.739,4.739,0,0,1,4.428-3.506l22.009-.769a4.788,4.788,0,0,1,4.9,4.21l1.816,15.667a4.753,4.753,0,0,1-.078,1.566l-.477,2.182A4.763,4.763,0,0,1,328.168,505.562Z" transform="translate(-222.187 -345.854)" fill="#fff"/>
    <path id="Path_16332" data-name="Path 16332" d="M447.286,506.9a3.548,3.548,0,0,1-3.443-2.737l-4.811-20.8a3.534,3.534,0,0,1,3.443-4.33h57.051a3.552,3.552,0,0,1,2.537,1.073L520.7,499.32a3.534,3.534,0,0,1-2.458,5.993L447.364,506.9Z" transform="translate(-320.021 -346.432)" fill="#fff"/>
    <path id="Path_16333" data-name="Path 16333" d="M236.13,464.574l.487-.763s2.836-7.854,41.886-9.163,75.483-.654,83.772,6.545l-67.411-.218L237.926,464.9Z" transform="translate(-181.082 -329.354)" fill="#ed6522"/>
    <path id="Path_16334" data-name="Path 16334" d="M161.275,665.026c-4.1,0-7.417,6.837-7.417,15.271s3.321,15.271,7.417,15.271,7.417-6.837,7.417-15.271S165.372,665.026,161.275,665.026Zm.327,3.272c.9,0,1.636,1.758,1.636,3.927s-.733,3.927-1.636,3.927-1.636-1.758-1.636-3.927.733-3.927,1.636-3.927Zm.982,12a1.109,1.109,0,1,1-1.091-1.309,1.215,1.215,0,0,1,1.091,1.309Zm-5.7.84c-1.4.108-2.576-.278-2.622-.862s1.055-1.146,2.458-1.254,2.576.277,2.621.862-1.055,1.146-2.458,1.254ZM161.6,692.3c-.9,0-1.636-1.758-1.636-3.927s.733-3.927,1.636-3.927,1.636,1.758,1.636,3.927-.732,3.927-1.636,3.927Zm4.227-11.159c-1.4.108-2.576-.278-2.622-.862s1.055-1.146,2.458-1.254,2.576.277,2.622.862-1.055,1.146-2.458,1.254Z" transform="translate(-124.72 -473.849)" fill="#e4e4e4"/>
    <path id="Path_16335" data-name="Path 16335" d="M480.822,697.583c-6.506,0-11.781,8.742-11.781,19.525s5.274,19.525,11.781,19.525,11.78-8.742,11.78-19.525S487.328,697.583,480.822,697.583Zm-7.038,20.99c-1.9.147-3.49-.376-3.551-1.168s1.43-1.552,3.33-1.7,3.49.376,3.551,1.168-1.43,1.553-3.33,1.7Zm7.045,14.9c-1.224,0-2.216-2.381-2.216-5.319s.992-5.319,2.216-5.319,2.216,2.381,2.216,5.319-.992,5.319-2.216,5.319Zm-1.752-16.253a1.774,1.774,0,1,1,1.745,2.094,1.944,1.944,0,0,1-1.745-2.094Zm1.752-5.615c-1.224,0-2.216-2.381-2.216-5.319s.992-5.319,2.216-5.319,2.216,2.381,2.216,5.319-.992,5.319-2.216,5.319Zm7.471,6.535c-1.9.147-3.49-.376-3.551-1.168s1.43-1.552,3.33-1.7,3.49.376,3.551,1.168S490.2,717.99,488.3,718.137Z" transform="translate(-340.642 -496.152)" fill="#e4e4e4"/>
    <path id="Path_16336" data-name="Path 16336" d="M375.525,565.359l2.618,6.108s4.363,1.745,7.2-4.145l-5.747-5.747Z" transform="translate(-276.577 -402.978)" fill="#cacaca"/>
    <path id="Path_16337" data-name="Path 16337" d="M345.588,553.414c-4.691,0-8.508-2.544-8.508-5.672s3.817-5.672,8.508-5.672,8.508,2.545,8.508,5.672S350.28,553.414,345.588,553.414Z" transform="translate(-250.24 -389.616)" fill="#cacaca"/>
    <path id="Path_16338" data-name="Path 16338" d="M753.326,641.474,704.55,642.9s-10.674,2.994-11.764,11.549c0,0,1.525,6.986,5.446,6.986s64.047-3.137,64.047-3.137,3.921-5.988.654-10.266S753.326,641.474,753.326,641.474Z" transform="translate(-493.922 -457.714)" fill="#3f3d56"/>
    <rect id="Rectangle_17594" data-name="Rectangle 17594" width="57.231" height="0.654" transform="matrix(0.999, -0.033, 0.033, 0.999, 206.425, 188.377)" fill="#e4e4e4"/>
    <rect id="Rectangle_17595" data-name="Rectangle 17595" width="62.274" height="0.654" transform="translate(203.498 191.379) rotate(-2.594)" fill="#e4e4e4"/>
    <rect id="Rectangle_17596" data-name="Rectangle 17596" width="66.811" height="0.655" transform="translate(201.169 194.959) rotate(-3.074)" fill="#e4e4e4"/>
    <g id="Group_142" data-name="Group 142" transform="translate(0 109.606)">
      <path id="Path_2185" data-name="Path 2185" d="M174.949,592.259a2.967,2.967,0,0,1,.958-4.448l-.62-6.752,4.012-1.377.741,9.548a2.983,2.983,0,0,1-5.092,3.03Z" transform="translate(-138.74 -524.988)" fill="#ffb8b8"/>
      <path id="Path_2186" data-name="Path 2186" d="M179.107,487.467s2.753-5.778,5.2-3.747-3.354,19.115-3.354,19.115l-.882,16.585-4.649-.465L174.107,502.8Z" transform="translate(-138.592 -458.951)" fill="#e6e6e6"/>
      <path id="Path_2187" data-name="Path 2187" d="M72.732,739.01l3.451,2.793L88.6,729.82,83.507,725.7Z" transform="translate(-63.143 -617.877)" fill="#ffb8b8"/>
      <path id="Path_2188" data-name="Path 2188" d="M64.957,762.125l6.8,5.5h0a5.573,5.573,0,0,1,.825,7.837l-.114.141L61.337,766.6Z" transform="translate(-55.337 -642.832)" fill="#2f2e41"/>
      <path id="Path_2189" data-name="Path 2189" d="M225.026,755.333h4.44l2.111-17.128h-6.552Z" transform="translate(-164.896 -633.047)" fill="#ffb8b8"/>
      <path id="Path_2190" data-name="Path 2190" d="M221.431,787.987h8.745a5.573,5.573,0,0,1,5.573,5.572v.181H221.431Z" transform="translate(-162.434 -667.151)" fill="#2f2e41"/>
      <path id="Path_2191" data-name="Path 2191" d="M138.683,537.647s8.33,10.14,6.519,20.282-3.26,17.747-3.26,17.747l-2.9,22.816s1.087,6.215-.362,7.815c0,0,2.173,3.774-1.811,5.223s-6.135-.5-6.135-.5-2.921-4.208-1.11-5.293l.763-44.781-29.012,37.9s-.533,4.609-4.251,4.659l-4.442,3.309-5.07-2.9,2.535-3.26s-1.449-3.622,1.811-4.346L110.8,571.691l4.708-12.676s2.535-9.779,9.417-13.763v-4.239Z" transform="translate(-144.811 -475.08) rotate(-7)" fill="#2f2e41"/>
      <path id="Path_2192" data-name="Path 2192" d="M194.99,476.544h0a6.916,6.916,0,0,1,9.116-1.287l.3.2h0a26.7,26.7,0,0,1,6.249,12.867l1.356,7.415-17.022,3.687L191,485.664a7.776,7.776,0,0,1,3.99-9.12Z" transform="translate(-149.953 -452.654)" fill="#e6e6e6"/>
      <path id="Path_2193" data-name="Path 2193" d="M278.247,592.609a3.4,3.4,0,0,1-1.937-4.834l-4.911-6.009,2.924-3.875,6.815,8.584a3.415,3.415,0,0,1-2.892,6.134Z" transform="translate(-205.244 -523.761)" fill="#ffb8b8"/>
      <path id="Path_2194" data-name="Path 2194" d="M227.009,484.124s-1.087-7.244,2.535-6.881,9.054,20.282,9.054,20.282l9.779,16.3-4.708,2.535-11.59-14.487Z" transform="translate(-174.729 -454.801)" fill="#e6e6e6"/>
      <g id="Group_8698" data-name="Group 8698" transform="translate(-35.415 -212.009)">
        <path id="Path_16341" data-name="Path 16341" d="M0,7s.464.427,1.188.965a12.181,12.181,0,0,0,2.507,1.43,15.929,15.929,0,0,0,4.345.947H9.1a2.432,2.432,0,0,0,1.745-.65A9.709,9.709,0,0,1,8.986,5.978a18.656,18.656,0,0,1,0-5.2V0A9.488,9.488,0,0,0,2.544,2.692,11.139,11.139,0,0,0,0,7Z" transform="matrix(0.966, -0.259, 0.259, 0.966, 90.614, 221.156)" fill="url(#linear-gradient)"/>
        <path id="Path_16342" data-name="Path 16342" d="M0,6.869s.464.427,1.188.965A15.871,15.871,0,0,0,1.95,5.05,10.3,10.3,0,0,1,4.586,2.024,6.8,6.8,0,0,1,8.819.78c0-.316,0-.594,0-.78A9.488,9.488,0,0,0,2.377,2.692,11.14,11.14,0,0,0,0,6.869Z" transform="matrix(0.966, -0.259, 0.259, 0.966, 90.648, 221.281)" fill="#dd7553" opacity="0.3"/>
        <path id="Path_16339" data-name="Path 16339" d="M3.673,19.746a6.35,6.35,0,0,1,2.265-1.151,18.792,18.792,0,0,0,.3,2.3,18.769,18.769,0,0,0,1.1,3.193h0a11.924,11.924,0,0,0,1.188.984,4.791,4.791,0,0,0,6.628-1l.279-.353a11.661,11.661,0,0,0,1.355-2.488,9.062,9.062,0,0,0,.427-1.541,15.932,15.932,0,0,1-4.345-.947A13.237,13.237,0,0,1,9.15,16.348v-.186a12.476,12.476,0,0,1,2.414-3.992,9.488,9.488,0,0,1,6.443-2.692,3.714,3.714,0,0,0,3.231-.3,9.1,9.1,0,0,0,2.284-1.745c.817-.835,1.244-1.708.65-2.246-1-.873-2.915.761-3.1,1.04.111-.278,1.058-2.581.464-3.026s-2.711,1.355-2.711,1.355S18.062.716,10.914.066c-4.92-.446-8,1.392-9.6,4.641A13.552,13.552,0,0,0,3.6,19.727Z" transform="matrix(0.966, -0.259, 0.259, 0.966, 79.335, 214.481)" fill="url(#linear-gradient-2)"/>
        <path id="Path_16340" data-name="Path 16340" d="M3.6,15.02a6.35,6.35,0,0,1,2.265-1.151,18.792,18.792,0,0,0,.3,2.3,18.767,18.767,0,0,0,1.1,3.193h0a11.924,11.924,0,0,0,1.188.984,4.716,4.716,0,0,0,5.57,0,10.008,10.008,0,0,1-3.138-.761,4.92,4.92,0,0,1-3.4-4.92,6.554,6.554,0,0,1,1.634-3.23,12.476,12.476,0,0,1,2.414-3.992A9.488,9.488,0,0,1,17.97,4.753a3.714,3.714,0,0,0,3.231-.3,9.1,9.1,0,0,0,2.284-1.745,5.737,5.737,0,0,1-4.456,1.17,10.713,10.713,0,0,0-6.5-.186,5.069,5.069,0,0,0-1.857,1.3S9.15,3.138,9.336,2.061s-.186-1-.186-1A14.109,14.109,0,0,1,7.572,4.771C6.941,5.421,1.7,3.416,1.315,0A13.552,13.552,0,0,0,3.6,15.02Z" transform="matrix(0.966, -0.259, 0.259, 0.966, 80.63, 219.026)" opacity="0.4" fill="url(#linear-gradient-3)"/>
        <path id="Path_16343" data-name="Path 16343" d="M3.091,1.17C3.463,1.021,3.314.037,1.866,0,.808,0-.1.8.009,1S.845.817,1.513.91,2.739,1.318,3.091,1.17Z" transform="matrix(0.966, -0.259, 0.259, 0.966, 95.574, 221.48)" fill="#48210d"/>
        <path id="Path_16351" data-name="Path 16351" d="M0,2.674a3.713,3.713,0,0,1,1.318.483,6.5,6.5,0,0,1,1.857,1.56A20.666,20.666,0,0,1,4.679,6.8l.186-.483L5.2,5.5h0A18.769,18.769,0,0,1,4.1,2.3c-.26-1.857-.3-2.3-.3-2.3A6.35,6.35,0,0,0,1.541,1.151,7.26,7.26,0,0,0,0,2.674Z" transform="matrix(0.966, -0.259, 0.259, 0.966, 86.228, 231.904)" fill="url(#linear-gradient-4)"/>
        <path id="Path_16352" data-name="Path 16352" d="M0,2.636a3.713,3.713,0,0,1,1.318.483H3.825c.241,0,.446,2.247,1.021,3.193L5.18,5.5h0A18.771,18.771,0,0,1,4.085,2.3c-.26-1.856-.3-2.3-.3-2.3A6.35,6.35,0,0,0,1.523,1.151,7.259,7.259,0,0,0,0,2.636Z" transform="matrix(0.966, -0.259, 0.259, 0.966, 86.238, 231.94)" fill="#dd7553" opacity="0.3"/>
        <path id="Path_16348" data-name="Path 16348" d="M0,.738H1.059A2.432,2.432,0,0,0,2.8.088a4.921,4.921,0,0,0-1.857,0C-.055.293,0,.738,0,.738Z" transform="matrix(0.966, -0.259, 0.259, 0.966, 100.866, 228.351)" fill="#dd7553" opacity="0.3"/>
        <path id="Path_16354" data-name="Path 16354" d="M5.143,5.5A10.21,10.21,0,0,0,3.286,1.541,4.883,4.883,0,0,0,.928,0S.093.687,0,1H.334A5.682,5.682,0,0,1,2.377,2.079,37.435,37.435,0,0,1,5.143,5.5Z" transform="matrix(0.966, -0.259, 0.259, 0.966, 86.35, 233.505)" fill="#e6e6e6"/>
        <path id="Path_16344" data-name="Path 16344" d="M0,1.3a2.172,2.172,0,0,0,1.281.817H2.1A2.209,2.209,0,0,0,2.8.261c0-.241-.316-.3-.687-.241a2.691,2.691,0,0,0-1,.353A8.154,8.154,0,0,0,0,1.3Z" transform="matrix(0.966, -0.259, 0.259, 0.966, 96.009, 223.572)" fill="#fff"/>
        <path id="Path_16345" data-name="Path 16345" d="M.338,2.118H.765A2.21,2.21,0,0,0,1.471.261c0-.241-.316-.3-.687-.241A1.17,1.17,0,0,0,.041.948a1.244,1.244,0,0,0,.3,1.17Z" transform="matrix(0.966, -0.259, 0.259, 0.966, 97.313, 223.282)" fill="#52280d"/>
        <path id="Path_16346" data-name="Path 16346" d="M3.194.355c-.111-.241-.724-.464-1.485-.3S0,1.469,0,1.469a1.855,1.855,0,0,0,.371,0A7.782,7.782,0,0,1,1.8.485,1.485,1.485,0,0,1,3.064.671S3.249.5,3.194.355Z" transform="matrix(0.966, -0.259, 0.259, 0.966, 95.745, 223.585)" fill="#8a4511"/>
        <path id="Path_16347" data-name="Path 16347" d="M2.748.469A1.6,1.6,0,0,0,1.3.617a3.194,3.194,0,0,1-1.3.65A3.267,3.267,0,0,1,1.318.1a1.207,1.207,0,0,1,1.43.371Z" transform="matrix(0.966, -0.259, 0.259, 0.966, 96.107, 223.716)" fill="#8c8580" opacity="0.4"/>
        <path id="Path_16349" data-name="Path 16349" d="M3.752,5.656a2.852,2.852,0,0,1-.316.353c-.353.408-1.578.186-2.9-2.061A2.562,2.562,0,0,1,1.153.234,1.429,1.429,0,0,1,2.118.012C3.344.234,3.789,3.093,3.975,3.725a2.116,2.116,0,0,1-.223,1.931Z" transform="matrix(0.966, -0.259, 0.259, 0.966, 85.925, 224.535)" fill="url(#linear-gradient-5)"/>
        <path id="Path_16353" data-name="Path 16353" d="M0,0A5.421,5.421,0,0,1,1.523,3.268a.631.631,0,0,1-1,.408c-.78-.427.3-1.652.3-1.652Z" transform="matrix(0.966, -0.259, 0.259, 0.966, 87.859, 225.432)" fill="#dd7553" opacity="0.3"/>
        <path id="Path_16350" data-name="Path 16350" d="M2.6,5.6a11.287,11.287,0,0,0-.371-2.339A5.217,5.217,0,0,0,0,.234,1.43,1.43,0,0,1,.965.012C2.191.234,2.637,3.093,2.822,3.725A2.116,2.116,0,0,1,2.6,5.6Z" transform="matrix(0.966, -0.259, 0.259, 0.966, 87.054, 224.289)" fill="#dd7553" opacity="0.3"/>
      </g>
    </g>
  </g>
</svg>
