<svg xmlns="http://www.w3.org/2000/svg" width="24" height="24" viewBox="0 0 24 24">
  <g id="Group_8621" data-name="Group 8621" transform="translate(-273 -333)">
    <g id="messages-2_outline" data-name="messages-2/outline" transform="translate(273 333)">
      <g id="vuesax_outline_messages-2" data-name="vuesax/outline/messages-2">
        <g id="messages-2">
          <path id="Vector" d="M14.29,20.61a1.724,1.724,0,0,1-.9-.25L9.38,17.98a10.036,10.036,0,0,1-1.24-.1.76.76,0,0,1-.6-.48.732.732,0,0,1,.13-.75,4.047,4.047,0,0,0,1-2.67A4.586,4.586,0,0,0,3.92,9.59a4.911,4.911,0,0,0-2.71.79A.756.756,0,0,1,.05,9.84,7.919,7.919,0,0,1,0,8.99C0,4.03,4.3,0,9.58,0s9.58,4.03,9.58,8.99a8.681,8.681,0,0,1-3.48,6.93l.34,2.72a1.754,1.754,0,0,1-1.73,1.97ZM9.57,16.47a.64.64,0,0,1,.4.11l4.19,2.49a.222.222,0,0,0,.26,0,.242.242,0,0,0,.11-.25l-.39-3.16a.774.774,0,0,1,.31-.71,7.268,7.268,0,0,0,3.21-5.98c0-4.13-3.62-7.49-8.08-7.49A7.868,7.868,0,0,0,1.51,8.52a6.645,6.645,0,0,1,2.4-.45,6.081,6.081,0,0,1,6.25,5.89A5.453,5.453,0,0,1,9.57,16.47Z" transform="translate(3.58 1.26)" fill="#707070"/>
          <path id="Vector-2" data-name="Vector" d="M3.32,13.41a1.333,1.333,0,0,1-.74-.22,1.371,1.371,0,0,1-.63-1.32l.2-1.54A5.755,5.755,0,0,1,0,5.89,5.775,5.775,0,0,1,2.73,1.03,6.444,6.444,0,0,1,6.25,0,6.081,6.081,0,0,1,12.5,5.89a5.636,5.636,0,0,1-1.36,3.65,6.265,6.265,0,0,1-4.68,2.23L4.02,13.22A1.366,1.366,0,0,1,3.32,13.41ZM6.24,1.5a4.911,4.911,0,0,0-2.71.79,4.286,4.286,0,0,0-2.04,3.6A4.179,4.179,0,0,0,3.37,9.37a.76.76,0,0,1,.32.71l-.22,1.71,2.39-1.42a.758.758,0,0,1,.38-.11,4.845,4.845,0,0,0,3.74-1.7,4.1,4.1,0,0,0,1.01-2.68A4.584,4.584,0,0,0,6.24,1.5Z" transform="translate(1.26 9.34)" fill="#707070"/>
          <path id="Vector-3" data-name="Vector" d="M0,0H24V24H0Z" fill="none" opacity="0"/>
        </g>
      </g>
    </g>
  </g>
</svg>
