<svg xmlns="http://www.w3.org/2000/svg" width="30.545" height="30.545" viewBox="0 0 30.545 30.545">
  <g id="Group_8227" data-name="Group 8227" transform="translate(2398.44 -10839)">
    <g id="category-2_outline" data-name="category-2/outline" transform="translate(-2398.44 10839)">
      <g id="vuesax_outline_category-2" data-name="vuesax/outline/category-2">
        <g id="category-2">
          <path id="Vector" d="M7.318,12.091H4.773C1.693,12.091,0,10.4,0,7.318V4.773C0,1.693,1.693,0,4.773,0H7.318c3.08,0,4.773,1.693,4.773,4.773V7.318C12.091,10.4,10.4,12.091,7.318,12.091ZM4.773,1.909c-2.011,0-2.864.853-2.864,2.864V7.318c0,2.011.853,2.864,2.864,2.864H7.318c2.011,0,2.864-.853,2.864-2.864V4.773c0-2.011-.853-2.864-2.864-2.864Z" transform="translate(16.863 1.591)" fill="#999b9e"/>
          <path id="Vector-2" data-name="Vector" d="M7.318,12.091H4.773C1.693,12.091,0,10.4,0,7.318V4.773C0,1.693,1.693,0,4.773,0H7.318c3.08,0,4.773,1.693,4.773,4.773V7.318C12.091,10.4,10.4,12.091,7.318,12.091ZM4.773,1.909c-2.011,0-2.864.853-2.864,2.864V7.318c0,2.011.853,2.864,2.864,2.864H7.318c2.011,0,2.864-.853,2.864-2.864V4.773c0-2.011-.853-2.864-2.864-2.864Z" transform="translate(1.591 16.863)" fill="#999b9e"/>
          <path id="Vector-3" data-name="Vector" d="M6.045,12.091a6.045,6.045,0,1,1,6.045-6.045A6.051,6.051,0,0,1,6.045,12.091Zm0-10.182a4.136,4.136,0,1,0,4.136,4.136A4.144,4.144,0,0,0,6.045,1.909Z" transform="translate(1.591 1.591)" fill="#999b9e"/>
          <path id="Vector-4" data-name="Vector" d="M6.045,12.091a6.045,6.045,0,1,1,6.045-6.045A6.051,6.051,0,0,1,6.045,12.091Zm0-10.182a4.136,4.136,0,1,0,4.136,4.136A4.144,4.144,0,0,0,6.045,1.909Z" transform="translate(16.863 16.863)" fill="#999b9e"/>
          <path id="Vector-5" data-name="Vector" d="M0,0H30.545V30.545H0Z" fill="none" opacity="0"/>
        </g>
      </g>
    </g>
  </g>
</svg>
