<svg xmlns="http://www.w3.org/2000/svg" width="24" height="24" viewBox="0 0 24 24">
  <g id="Group_8622" data-name="Group 8622" transform="translate(-273 -333)">
    <g id="message-edit_outline" data-name="message-edit/outline" transform="translate(273 333)">
      <g id="vuesax_outline_message-edit" data-name="vuesax/outline/message-edit">
        <g id="message-edit">
          <path id="Vector" d="M14.75,21.5h-13A1.758,1.758,0,0,1,0,19.75v-13C0,2.33,2.33,0,6.75,0h8c4.42,0,6.75,2.33,6.75,6.75v8C21.5,19.17,19.17,21.5,14.75,21.5Zm-8-20C3.17,1.5,1.5,3.17,1.5,6.75v13a.248.248,0,0,0,.25.25h13C18.33,20,20,18.33,20,14.75v-8c0-3.58-1.67-5.25-5.25-5.25Z" transform="translate(1.25 1.25)" fill="#707070"/>
          <path id="Vector-2" data-name="Vector" d="M1.7,11.5a1.732,1.732,0,0,1-1.22-.48,1.71,1.71,0,0,1-.46-1.5L.3,7.536a2.545,2.545,0,0,1,.64-1.29l5.19-5.19a2.734,2.734,0,0,1,4.31,0,2.977,2.977,0,0,1,1.04,2.39,3.185,3.185,0,0,1-1.04,1.92l-5.19,5.19a2.6,2.6,0,0,1-1.29.65l-1.98.28C1.894,11.486,1.794,11.5,1.7,11.5Zm6.58-10a1.656,1.656,0,0,0-1.08.61L2.014,7.3a1.215,1.215,0,0,0-.22.44l-.28,1.98a.309.309,0,0,0,.04.23.309.309,0,0,0,.23.04l1.98-.28a1.141,1.141,0,0,0,.44-.22L9.394,4.3A1.8,1.8,0,0,0,10,3.286a1.61,1.61,0,0,0-.61-1.18A1.728,1.728,0,0,0,8.284,1.5Z" transform="translate(6.246 6.254)" fill="#707070"/>
          <path id="Vector-3" data-name="Vector" d="M4,4.757a.645.645,0,0,1-.2-.03A5.48,5.48,0,0,1,.027.957a.76.76,0,0,1,.52-.93.745.745,0,0,1,.92.52A3.987,3.987,0,0,0,4.2,3.277a.755.755,0,0,1,.52.93A.747.747,0,0,1,4,4.757Z" transform="translate(11.422 7.823)" fill="#707070"/>
          <path id="Vector-4" data-name="Vector" d="M0,0H24V24H0Z" fill="none" opacity="0"/>
        </g>
      </g>
    </g>
  </g>
</svg>
