<svg xmlns="http://www.w3.org/2000/svg" width="24" height="24" viewBox="0 0 24 24">
  <g id="Group_8627" data-name="Group 8627" transform="translate(-273 -333)">
    <g id="eye_shield-security_outline" data-name="eye/shield-security/outline" transform="translate(273 333)">
      <g id="vuesax_outline_frame" data-name="vuesax/outline/frame">
        <g id="frame">
          <path id="Vector" d="M9.35,21.507a5.09,5.09,0,0,1-3.02-.95l-4.3-3.21A5.585,5.585,0,0,1,0,13.308V5.867a4.209,4.209,0,0,1,2.58-3.72L7.57.278a5.784,5.784,0,0,1,3.54,0l5,1.87a4.209,4.209,0,0,1,2.58,3.72V13.3a5.585,5.585,0,0,1-2.03,4.04l-4.3,3.21A4.98,4.98,0,0,1,9.35,21.507ZM8.1,1.688,3.11,3.557A2.732,2.732,0,0,0,1.5,5.878v7.43a4.134,4.134,0,0,0,1.42,2.84l4.3,3.21a3.823,3.823,0,0,0,4.25,0l4.3-3.21a4.134,4.134,0,0,0,1.42-2.84V5.867a2.757,2.757,0,0,0-1.61-2.32l-4.99-1.87A4.31,4.31,0,0,0,8.1,1.688Z" transform="translate(2.65 1.252)" fill="#707070"/>
          <path id="Vector-2" data-name="Vector" d="M2.75,5.5A2.75,2.75,0,1,1,5.5,2.75,2.748,2.748,0,0,1,2.75,5.5Zm0-4A1.25,1.25,0,1,0,4,2.75,1.25,1.25,0,0,0,2.75,1.5Z" transform="translate(9.25 7.75)" fill="#707070"/>
          <path id="Vector-3" data-name="Vector" d="M.75,4.5A.755.755,0,0,1,0,3.75v-3A.755.755,0,0,1,.75,0,.755.755,0,0,1,1.5.75v3A.755.755,0,0,1,.75,4.5Z" transform="translate(11.25 11.75)" fill="#707070"/>
          <path id="Vector-4" data-name="Vector" d="M0,0H24V24H0Z" fill="none" opacity="0"/>
        </g>
      </g>
    </g>
  </g>
</svg>
